name C:\Users\u0101727\Documents\MyRepositories\paper-ad\predictivesimulations_2d/Results/PredSim_2D/IK_c12.mot
datacolumns 11
datarows 21
range 0.00000000 0.19187212
endheader
time	pelvis_tilt	pelvis_tx	pelvis_ty	hip_flexion_l	hip_flexion_r	knee_angle_l	knee_angle_r	ankle_angle_l	ankle_angle_r	lumbar_extension	
          0.00000000	        -15.13011648	          0.00000000	          0.88365055	          0.95226283	         38.06465175	        -16.23090929	        -10.56683159	          5.77360929	         13.83951678	          9.63176942	
          0.00959361	        -15.09207537	          0.01477781	          0.88286446	          0.85856980	         37.57999186	        -17.72459250	         -9.96146300	          4.57315193	         13.39134496	          9.72865565	
          0.01918721	        -15.04298635	          0.02981905	          0.88202746	          0.84361621	         37.00014543	        -19.38576379	         -9.64211445	          3.26885757	         12.89107800	          9.83858267	
          0.02878082	        -14.98540540	          0.04510669	          0.88116295	          0.91463705	         36.25704008	        -21.21130094	         -9.72933132	          1.84072251	         12.33664383	          9.96552277	
          0.03837442	        -14.92754420	          0.06045486	          0.88039783	          1.07626852	         35.39382688	        -23.18262759	        -10.04342789	          0.37411502	         11.76737895	         10.10004909	
          0.04796803	        -14.88037654	          0.07552287	          0.87996157	          1.35536509	         34.53569383	        -25.20733179	        -10.32346920	         -0.90941679	         11.21721864	         10.21891776	
          0.05756163	        -14.85246602	          0.09006363	          0.88011583	          1.78018737	         33.71989559	        -27.14520278	        -10.58160036	         -1.91186048	         10.68604502	         10.30821423	
          0.06715524	        -14.84615645	          0.10401413	          0.88101638	          2.34664596	         32.94889188	        -28.93359977	        -10.81269589	         -2.66258233	         10.18850854	         10.36679788	
          0.07674885	        -14.85675791	          0.11745763	          0.88262247	          3.03796895	         32.20415466	        -30.59323966	        -11.00476326	         -3.17101889	          9.74090114	         10.40080926	
          0.08634245	        -14.87767864	          0.13051833	          0.88472434	          3.83361496	         31.46457001	        -32.15322433	        -11.14888355	         -3.44991621	          9.35470938	         10.41727476	
          0.09593606	        -14.90355362	          0.14330372	          0.88708945	          4.71802292	         30.71333099	        -33.63113333	        -11.23823828	         -3.51483574	          9.03620502	         10.42150914	
          0.10552966	        -14.93094373	          0.15588805	          0.88953507	          5.67916105	         29.94098996	        -35.03544218	        -11.27091141	         -3.38081023	          8.78701246	         10.41670865	
          0.11512327	        -14.95795574	          0.16831830	          0.89193761	          6.70802047	         29.14302245	        -36.36747312	        -11.24734274	         -3.06414332	          8.60609468	         10.40463210	
          0.12471688	        -14.98362807	          0.18062452	          0.89421784	          7.79719862	         28.31788327	        -37.62411557	        -11.16953851	         -2.58156612	          8.49081258	         10.38628918	
          0.13431048	        -15.00747156	          0.19282702	          0.89632535	          8.94051607	         27.46594693	        -38.80048337	        -11.04098182	         -1.94994565	          8.43742399	         10.36229499	
          0.14390409	        -15.02921862	          0.20494088	          0.89822772	         10.13242679	         26.58886493	        -39.89048462	        -10.86651605	         -1.18623481	          8.44138475	         10.33309911	
          0.15349769	        -15.04869817	          0.21697850	          0.89990397	         11.36756810	         25.68923063	        -40.88736387	        -10.65217988	         -0.30759978	          8.49755430	         10.29910914	
          0.16309130	        -15.06578700	          0.22895080	          0.90134146	         12.64052764	         24.77034983	        -41.78392505	        -10.40498737	          0.66857169	          8.60035143	         10.26074103	
          0.17268490	        -15.08039785	          0.24086726	          0.90253530	         13.94592950	         23.83619444	        -42.57256811	        -10.13294616	          1.72470748	          8.74396285	         10.21838830	
          0.18227851	        -15.09251481	          0.25273550	          0.90348874	         15.27876426	         22.89120118	        -43.24513916	         -9.84387394	          2.84313408	          8.92252341	         10.17236959	
          0.19187212	        -15.10226136	          0.26456284	          0.90421239	         16.63305208	         21.93926204	        -43.79409616	         -9.54482232	          4.00604075	          9.12954846	         10.12316154	
